<svg width="18" height="18" xmlns="http://www.w3.org/2000/svg"><g fill="none" fill-rule="evenodd"><path d="M0 0h18v18H0z"/><path d="M6.545 9.955a1.5 1.5 0 011.5 1.5V13.5a1.5 1.5 0 01-1.5 1.5H4.5A1.5 1.5 0 013 13.5v-2.045a1.5 1.5 0 011.5-1.5h2.045zm6.955 0a1.5 1.5 0 011.5 1.5V13.5a1.5 1.5 0 01-1.5 1.5h-2.045a1.5 1.5 0 01-1.5-1.5v-2.045a1.5 1.5 0 011.5-1.5H13.5zM6.545 3a1.5 1.5 0 011.5 1.5v2.045a1.5 1.5 0 01-1.5 1.5H4.5a1.5 1.5 0 01-1.5-1.5V4.5A1.5 1.5 0 014.5 3h2.045zM13.5 3A1.5 1.5 0 0115 4.5v2.045a1.5 1.5 0 01-1.5 1.5h-2.045a1.5 1.5 0 01-1.5-1.5V4.5a1.5 1.5 0 011.5-1.5H13.5z" stroke="#737373"/></g></svg>