<svg xmlns="http://www.w3.org/2000/svg" width="22" height="22" viewBox="0 0 22 22">
    <g fill="none" fill-rule="evenodd">
        <path d="M0 0H910V586H0z" transform="translate(-74 -162)"/>
        <g transform="translate(-74 -162) translate(74 162)">
            <rect width="22" height="22" fill="#E1E1E1" rx="4"/>
            <path fill="#FFF" d="M13.664 14.336l.612-2.722h-1.271l.659 2.722zm-2.854-3.62h1.08l-.529-2.256-.551 2.255zm-1.727 3.657l.66-2.759H8.471l.612 2.76zm-2.675-3.658h.828l-.732-3.167c-.12-.587.9-.79 1.032-.168l.732 3.335h1.69l.792-3.227c.132-.623 1.115-.635 1.26.013l.779 3.214h1.69l.768-3.358c.12-.588 1.104-.384.96.18l-.743 3.178h.803c.264 0 .396.204.396.455 0 .264-.132.444-.384.444H15.26l-.816 3.49c-.204.935-1.283.948-1.5.012l-.839-3.502h-1.523l-.852 3.502c-.191.923-1.283.923-1.475.025l-.815-3.527H6.408c-.251 0-.408-.192-.408-.456 0-.252.144-.443.408-.443z"/>
        </g>
    </g>
</svg>
