<svg width="18" height="18" xmlns="http://www.w3.org/2000/svg"><g fill="none" fill-rule="evenodd"><path d="M0 0h18v18H0z"/><path d="M9 3c2.488 0 4.5 1.895 4.5 4.239 0 .724-.23 1.545-.652 2.449-.37.79-.879 1.625-1.492 2.482a26.361 26.361 0 01-2.117 2.581L9 15l-.239-.249a7.085 7.085 0 01-.184-.198 26.361 26.361 0 01-1.933-2.383c-.613-.857-1.122-1.691-1.492-2.482-.423-.904-.652-1.725-.652-2.45C4.5 4.896 6.512 3 9 3zm0 2.4c-1.035 0-1.875.896-1.875 2s.84 2 1.875 2c1.035 0 1.875-.896 1.875-2s-.84-2-1.875-2z" stroke="#737373"/></g></svg>