<svg width="37" height="18" viewBox="0 0 37 18" xmlns="http://www.w3.org/2000/svg">
    <g fill="none" fill-rule="evenodd">
        <g fill="#323232">
            <path d="M19.478 5c.96 0 1.68.292 2.16.876.48.585.72 1.447.72 2.589v.557c0 1.16-.269 2.029-.808 2.608-.539.58-1.257.87-2.153.87-.462 0-.87-.084-1.223-.251a2.04 2.04 0 0 1-.829-.687v2.88c0 .191-.068.332-.204.422a.837.837 0 0 1-.475.136.814.814 0 0 1-.462-.136c-.136-.09-.204-.23-.204-.421V5.639c0-.19.066-.329.197-.415a.788.788 0 0 1 .442-.129c.172 0 .323.043.455.13.131.085.197.223.197.414v.475a2.14 2.14 0 0 1 .95-.842c.4-.181.812-.272 1.237-.272zm-.23 1.168c-.282 0-.54.046-.775.136a1.743 1.743 0 0 0-1.012.992 2.087 2.087 0 0 0-.143.788v1.563c0 .208.047.502.143.693.095.19.228.36.4.51.173.149.376.269.612.36.235.09.498.135.788.135.561 0 .999-.192 1.311-.577.313-.385.469-.98.469-1.787v-.462c0-.797-.143-1.388-.428-1.773-.286-.385-.74-.578-1.366-.578zM26.566 5c.43 0 .823.055 1.176.165.353.11.656.268.908.475.253.206.448.459.585.757.138.298.207.635.207 1.011v4.528c0 .183-.065.358-.193.44a.773.773 0 0 1-.427.124.773.773 0 0 1-.426-.124c-.129-.082-.193-.215-.193-.399v-.564h-.014a1.396 1.396 0 0 1-.316.426 2.032 2.032 0 0 1-.482.33c-.183.102-.399.182-.647.242-.247.06-.509.089-.784.089-.798 0-1.417-.188-1.858-.564-.44-.376-.66-.904-.66-1.583v-.179c0-.302.048-.582.144-.84.096-.256.252-.48.468-.673.216-.193.498-.342.846-.448.349-.105.776-.158 1.28-.158h1.913v-.344c0-.532-.124-.92-.372-1.163-.247-.243-.642-.365-1.183-.365-.651 0-1.266.184-1.844.55-.147.093-.289.116-.427.07a.663.663 0 0 1-.44-.702c.018-.147.1-.27.248-.372a4.328 4.328 0 0 1 1.114-.523A4.5 4.5 0 0 1 26.566 5zm1.54 4.115h-1.885l-.195.005c-.438.023-.751.127-.94.311a1.087 1.087 0 0 0-.323.812v.055l.007.14a.919.919 0 0 0 .323.645c.22.183.546.275.977.275.532 0 .968-.092 1.307-.275.239-.138.42-.308.544-.51.124-.201.186-.454.186-.756v-.702zM32.484 14.93a.746.746 0 0 0 .49.048c.154-.04.267-.152.34-.333l3.47-8.833c.073-.182.066-.343-.02-.484a.674.674 0 0 0-.388-.292.917.917 0 0 0-.483-.007c-.168.04-.288.161-.36.36l-1.99 5.587h-.013L31.68 5.39c-.072-.209-.192-.332-.36-.368a.848.848 0 0 0-.497.041.705.705 0 0 0-.38.293c-.091.14-.1.306-.028.496l2.448 6.648-.733 1.682c-.073.163-.075.31-.007.442a.682.682 0 0 0 .36.306z"/>
        </g>
        <g transform="translate(0 3)">
            <rect fill="#5080FA" width="12" height="12" rx="3"/>
            <path d="M8.553 2.402C8.255 2.134 7.869 2 7.396 2c-.63 0-1.17.187-1.62.56a2.03 2.03 0 0 0-.756 1.379c-.015.171-.012.566.215 1.07.115.226.304.49.57.792.38.435.628.756.743.964.115.207.172.437.172.69 0 .401-.141.749-.424 1.044-.283.295-.616.443-1 .443-.346 0-.633-.112-.858-.335a1.144 1.144 0 0 1-.338-.849c0-.216.064-.435.193-.656.128-.22.287-.392.479-.516l-.002-.002a.553.553 0 0 0 .27-.477c0-.304-.24-.55-.536-.55a.52.52 0 0 0-.252.065V5.62c-.091.055-.183.121-.278.198C3.324 6.346 3 7.004 3 7.793c0 .645.209 1.174.626 1.587.417.413.951.62 1.604.62.842 0 1.524-.307 2.044-.92a2.33 2.33 0 0 0 .571-1.56c0-.61-.215-1.189-.646-1.736l-.223-.276-.144-.188-.548-.701c-.302-.38-.175-.785-.175-.785.05-.191.174-.365.374-.52.248-.194.523-.29.825-.29a.8.8 0 0 1 .464.12c.116.081.174.188.174.32 0 .247-.15.403-.45.471l.001.001a.516.516 0 0 0-.406.51c0 .287.226.52.505.52.04 0 .079-.005.116-.014.24-.043.433-.11.578-.205.473-.302.71-.737.71-1.304 0-.426-.149-.773-.447-1.041" fill="#FFF"/>
        </g>
    </g>
</svg>
