<svg xmlns="http://www.w3.org/2000/svg" width="25" height="24" viewBox="0 0 25 24">
    <g fill="none" fill-rule="evenodd">
        <path d="M0 0H25V24H0z"/>
        <g fill-rule="nonzero">
            <path stroke="#B5B5B5" stroke-linejoin="round" stroke-width="1.5" d="M2.212 14.816l.818-3.328C1.487 10.331.52 8.675.52 6.836.52 3.336 4.02.5 8.334.5c4.315 0 7.813 2.837 7.813 6.336s-3.498 6.335-7.813 6.335c-.907 0-1.779-.125-2.59-.356l-3.53 2z" transform="translate(4.167 4.5)"/>
            <path fill="#B5B5B5" d="M4.688 6c.575 0 1.041.448 1.041 1s-.466 1-1.042 1c-.575 0-1.041-.448-1.041-1s.466-1 1.042-1zm3.645 0c.576 0 1.042.448 1.042 1s-.466 1-1.042 1c-.575 0-1.041-.448-1.041-1s.466-1 1.041-1zm3.646 0c.575 0 1.042.448 1.042 1s-.467 1-1.042 1-1.041-.448-1.041-1 .466-1 1.041-1z" transform="translate(4.167 4.5)"/>
        </g>
    </g>
</svg>
