<svg xmlns="http://www.w3.org/2000/svg" width="24" height="24" viewBox="0 0 24 24">
    <g fill="none" fill-rule="evenodd">
        <circle cx="12" cy="12" r="9.5" stroke="#E1E1E1"/>
        <path fill="#333" d="M10.88 16.229c0-.444.343-.78.78-.78.444 0 .78.335.78.78 0 .437-.336.779-.78.779-.437 0-.78-.342-.78-.78m.179-2.762v-.19c0-.923.429-1.531 1.367-2.092.793-.485 1.1-.93 1.1-1.627 0-.89-.67-1.49-1.674-1.49-.91 0-1.512.458-1.737 1.278-.117.417-.267.547-.574.547-.35 0-.541-.205-.541-.56 0-.294.055-.527.178-.793.404-.971 1.408-1.54 2.72-1.54 1.696 0 2.899 1.034 2.899 2.497 0 1.073-.553 1.81-1.428 2.337-.87.513-1.115.896-1.115 1.614 0 .43-.164.724-.588.724-.424 0-.607-.314-.607-.704"/>
    </g>
</svg>
