<svg xmlns="http://www.w3.org/2000/svg" xmlns:xlink="http://www.w3.org/1999/xlink" width="970" height="80" viewBox="0 0 970 80">
    <defs>
        <path id="prefix__a" d="M0 0H970V80H0z"/>
        <path id="prefix__c" d="M0 0.057H970V123.926H0z"/>
    </defs>
    <g fill="none" fill-rule="evenodd">
        <mask id="prefix__b" fill="#fff">
            <use xlink:href="#prefix__a"/>
        </mask>
        <g mask="url(#prefix__b)">
            <g transform="translate(0 -28)">
                <mask id="prefix__d" fill="#fff">
                    <use xlink:href="#prefix__c"/>
                </mask>
                <use fill="#F4F1F0" xlink:href="#prefix__c"/>
                <g mask="url(#prefix__d)">
                    <g>
                        <g opacity=".3">
                            <path fill="#C8D8B5" d="M85.717 58.838L132.08 57.49 128.621 74.627 91.412 76.667z" transform="translate(-1.591 -3.183) translate(11.736 3.24)"/>
                            <path fill="#D3CFCC" d="M0 0L25.988 0 31.52 51.063 0 15.549z" transform="translate(-1.591 -3.183) translate(11.736 3.24)"/>
                            <path fill="#C8D8B5" d="M176.637 95.736L213.583 106.628 208.768 123.274 169.161 124.077z" transform="translate(-1.591 -3.183) translate(11.736 3.24)"/>
                            <path fill="#D3CFCC" d="M139.455 22.979L155.849 28.139 163.921 0 175.607 0 169.161 69.545 129.101 73.994z" transform="translate(-1.591 -3.183) translate(11.736 3.24)"/>
                            <path fill="#C8D8B5" d="M27.312 10.748L73.064 5.214 80.031 39.228 46.061 26.631 49.08 50.083 31.52 51.063z" transform="translate(-1.591 -3.183) translate(11.736 3.24)"/>
                        </g>
                        <path stroke="#FFF" stroke-width="2.918" d="M11.736 18.023L43.256 54.898M55.738 12.021L60.817 53.323M57.797 29.871L93.738 43.063" transform="translate(-1.591 -3.183)"/>
                        <path stroke="#FFF" stroke-width="5.835" d="M83.533 1.326c.708 5.215 31.314 127.318 31.314 127.318" transform="translate(-1.591 -3.183)"/>
                        <path stroke="#FFF" stroke-width="2.918" d="M95.486 50.062L0 59.372M28.885 56.4L6.664 128.644M0 100.686L12.991 106.179M43.256 54.898L23.124 128.644M58.277 53.323L47.443 104.339M37.724 75.232L52.86 80.502M31.049 99.571L113.756 123.965M49.566 104.969L43.256 128.644M67.995 110.463L62.968 128.644M80.391 114.334L105.415 91.004M99.337 68.479L54.818 69.828M37.724 2.387L43.256 55.561M185.114 111.173L155.378 75.659M142.897 118.536L137.818 77.234M140.837 100.686L104.896 87.495M103.148 80.496L197.043 71.562M180.897 72.785L187.343 1.326M155.378 75.659L175.658 1.326M140.357 77.234L151.191 26.219M160.91 55.326L145.774 50.056M118.244 16.223L93.219 39.554M99.298 62.078L143.816 60.73M160.91 128.644L155.378 74.996M213.061 11.426L218.14 52.728M215.121 29.276L251.062 42.468" transform="translate(-1.591 -3.183)"/>
                        <path stroke="#FFF" stroke-width="5.835" d="M240.594 0c.472 3.476 10.909 45.648 31.31 126.514" transform="translate(-1.591 -3.183)"/>
                        <path stroke="#FFF" stroke-width="2.918" d="M252.81 49.466L199.491 54.528M200.58 54.303L180.897 129.439M215.601 52.728L204.767 103.743M195.048 74.637L210.184 79.907M188.373 98.976L271.08 123.37M206.89 104.374L200.58 129.439M225.319 109.868L219.248 129.439M237.714 113.739L262.739 90.409M256.66 67.884L212.141 69.233M195.048 1.326L200.58 54.966" transform="translate(-1.591 -3.183)"/>
                    </g>
                </g>
                <g mask="url(#prefix__d)">
                    <g>
                        <g opacity=".3">
                            <path fill="#C8D8B5" d="M85.717 58.838L132.08 57.49 128.621 74.627 91.412 76.667z" transform="rotate(-180 255.563 63.128) translate(11.736 3.24)"/>
                            <path fill="#D3CFCC" d="M0 0L25.988 0 31.52 51.063 0 15.549zM139.455 22.979L155.849 28.139 163.921 0 175.607 0 169.161 69.545 129.101 73.994z" transform="rotate(-180 255.563 63.128) translate(11.736 3.24)"/>
                            <path fill="#C8D8B5" d="M27.312 10.748L73.064 5.214 80.031 39.228 46.061 26.631 49.08 50.083 31.52 51.063z" transform="rotate(-180 255.563 63.128) translate(11.736 3.24)"/>
                        </g>
                        <path stroke="#FFF" stroke-width="2.918" d="M11.736 2.387L11.736 18.023 0 18.789M11.736 18.023L43.256 54.898M55.738 12.021L60.817 53.323M57.797 29.871L93.738 43.063" transform="rotate(-180 255.563 63.128)"/>
                        <path stroke="#FFF" stroke-width="5.835" d="M83.533 1.326c.708 5.215 31.314 127.318 31.314 127.318" transform="rotate(-180 255.563 63.128)"/>
                        <path stroke="#FFF" stroke-width="2.918" d="M95.486 50.062L2.907 57.877M28.885 56.4L6.664 128.644M43.256 54.898L23.124 128.644M58.277 53.323L47.443 104.339M37.724 75.232L52.86 80.502M80.391 114.334L105.415 91.004M99.337 68.479L54.818 69.828M37.724 2.387L43.256 55.561M185.114 111.173L155.378 75.659M142.897 118.536L137.818 77.234M140.837 100.686L104.896 87.495M103.148 80.496L197.043 71.562M180.897 72.785L187.343 1.326M155.378 75.659L175.658 1.326M140.357 77.234L151.191 26.219M160.91 55.326L145.774 50.056M167.585 30.987L84.878 6.592M149.068 25.588L155.378 2.387M130.639 20.094L136.071 2.387M118.244 16.223L93.219 39.554M99.298 62.078L143.816 60.73M160.91 128.644L155.378 74.996M213.061 11.426L218.14 52.728M215.121 29.276L251.062 42.468" transform="rotate(-180 255.563 63.128)"/>
                        <path stroke="#FFF" stroke-width="5.835" d="M240.594 0c.472 3.476 10.909 45.648 31.31 126.514" transform="rotate(-180 255.563 63.128)"/>
                        <path stroke="#FFF" stroke-width="2.918" d="M252.81 49.466L199.491 54.528M200.58 54.303L180.897 129.439M215.601 52.728L204.767 103.743M195.048 74.637L210.184 79.907M237.714 113.739L262.739 90.409M256.66 67.884L212.141 69.233M195.048 1.326L200.58 54.966" transform="rotate(-180 255.563 63.128)"/>
                    </g>
                </g>
                <g mask="url(#prefix__d)">
                    <g>
                        <g opacity=".3">
                            <path fill="#C8D8B5" d="M85.717 58.838L132.08 57.49 128.621 74.627 91.412 76.667z" transform="translate(483.541 -3.183) translate(11.736 3.24)"/>
                            <path fill="#D3CFCC" d="M0 0L25.988 0 31.52 51.063 0 15.549z" transform="translate(483.541 -3.183) translate(11.736 3.24)"/>
                            <path fill="#C8D8B5" d="M176.637 95.736L213.583 106.628 208.768 123.274 169.161 124.077z" transform="translate(483.541 -3.183) translate(11.736 3.24)"/>
                            <path fill="#D3CFCC" d="M139.455 22.979L155.849 28.139 143.642 72.23 129.101 73.994z" transform="translate(483.541 -3.183) translate(11.736 3.24)"/>
                            <path fill="#C8D8B5" d="M27.312 10.748L73.064 5.214 80.031 39.228 46.061 26.631 49.08 50.083 31.52 51.063z" transform="translate(483.541 -3.183) translate(11.736 3.24)"/>
                        </g>
                        <path stroke="#FFF" stroke-width="2.918" d="M11.736 18.023L43.256 54.898M55.738 12.021L60.817 53.323M57.797 29.871L93.738 43.063" transform="translate(483.541 -3.183)"/>
                        <path stroke="#FFF" stroke-width="5.835" d="M83.533 1.326c.708 5.215 31.314 127.318 31.314 127.318" transform="translate(483.541 -3.183)"/>
                        <path stroke="#FFF" stroke-width="2.918" d="M95.486 50.062L1.887 59.612M28.885 56.4L6.664 128.644M43.256 54.898L23.124 128.644M58.277 53.323L47.443 104.339M37.724 75.232L52.86 80.502M31.049 99.571L113.756 123.965M49.566 104.969L43.256 128.644M67.995 110.463L62.968 128.644M80.391 114.334L105.415 91.004M99.337 68.479L54.818 69.828M37.724 2.387L43.256 55.561M185.114 111.173L155.378 75.659M142.897 118.536L137.818 77.234M140.837 100.686L104.896 87.495M103.148 80.496L197.043 71.562M180.897 72.785L187.343 1.326M155.378 75.659L175.658 1.326M140.357 77.234L151.191 26.219M160.91 55.326L145.774 50.056M118.244 16.223L93.219 39.554M99.298 62.078L143.816 60.73M160.91 128.644L155.378 74.996M213.061 11.426L218.14 52.728M215.121 29.276L251.062 42.468" transform="translate(483.541 -3.183)"/>
                        <path stroke="#FFF" stroke-width="5.835" d="M240.594 0c.472 3.476 10.909 45.648 31.31 126.514" transform="translate(483.541 -3.183)"/>
                        <path stroke="#FFF" stroke-width="2.918" d="M252.81 49.466L199.491 54.528M200.58 54.303L180.897 129.439M215.601 52.728L204.767 103.743M195.048 74.637L210.184 79.907M188.373 98.976L271.08 123.37M206.89 104.374L200.58 129.439M225.319 109.868L219.248 129.439M237.714 113.739L262.739 90.409M256.66 67.884L212.141 69.233M195.048 1.326L200.58 54.966" transform="translate(483.541 -3.183)"/>
                    </g>
                </g>
                <g mask="url(#prefix__d)">
                    <g>
                        <path fill="#C8D8B5" d="M0.043 56.186L46.406 54.837 42.947 71.974 5.738 74.014z" opacity=".3" transform="rotate(-90 408.317 -281.954) translate(97.41 43.292)"/>
                        <path stroke="#FFF" stroke-width="2.918" d="M38.543.16L43.256 92.298M55.738 49.421L60.817 90.723M57.797 67.271L93.738 80.462" transform="rotate(-90 408.317 -281.954)"/>
                        <path stroke="#FFF" stroke-width="5.835" d="M83.533 43.992c.708 5.214 28.93 116.056 28.93 116.056" transform="rotate(-90 408.317 -281.954)"/>
                        <path stroke="#FFF" stroke-width="2.918" d="M95.486 87.461L2.907 95.277M28.885 93.799L6.664 166.043M43.256 92.298L21.57 169.491M58.277 90.723L47.443 141.738M37.724 112.631L52.86 117.901M31.049 136.97L110.027 159.503M49.566 142.369L43.256 166.043M80.391 151.734L105.415 128.403M99.337 105.879L54.818 107.227M167.585 68.386L84.878 43.992M118.244 53.623L93.219 76.953" transform="rotate(-90 408.317 -281.954)"/>
                    </g>
                </g>
                <g mask="url(#prefix__d)">
                    <g>
                        <g opacity=".3">
                            <path fill="#C8D8B5" d="M.043 62.552L46.406 61.203 42.947 78.34 5.738 80.38zM90.963 100.776L127.909 111.668 123.094 128.314 83.487 129.117z" transform="rotate(-90 518.42 -283.944) translate(97.41 36.926)"/>
                            <path fill="#D3CFCC" d="M53.781 27.223L70.175 32.383 79.191 0 89.514 2.861 83.487 73.789 43.427 78.238z" transform="rotate(-90 518.42 -283.944) translate(97.41 36.926)"/>
                        </g>
                        <path stroke="#FFF" stroke-width="2.918" d="M185.114 148.573L155.378 113.059M159.586 154.112L113.834 159.503M142.897 155.936L137.818 114.634M140.837 138.086L104.896 124.894M103.148 117.895L197.043 108.962M180.897 110.184L187.343 38.726M155.378 113.059L176.601 36.143M140.357 114.634L151.191 63.618M160.91 92.725L145.774 87.455M167.585 68.386L84.878 43.992M149.068 62.988L155.378 39.787M99.298 99.478L143.816 98.129M161.467 170.818L155.378 112.396M196.372 50.65L242.124 45.259M252.81 86.866L199.491 91.928M200.58 91.703L180.036 170.022M215.601 90.127L204.767 141.143M195.048 112.036L210.184 117.306M188.373 136.375L271.08 160.77M206.89 141.774L199.491 170.022M195.191 41.105L200.58 92.366" transform="rotate(-90 518.42 -283.944)"/>
                    </g>
                </g>
            </g>
        </g>
    </g>
</svg>
